<mxfile host="app.diagrams.net" modified="2023-06-18T18:26:25.373Z" agent="Mozilla/5.0 (Windows NT 10.0; Win64; x64) AppleWebKit/537.36 (KHTML, like Gecko) Chrome/114.0.0.0 Safari/537.36" etag="TIELKLaXt-CrKnNSFqOV" version="21.4.0" type="device">
  <diagram name="Page-1" id="BXRBHZn7yLMNFsL2Z0cU">
    <mxGraphModel dx="1615" dy="845" grid="0" gridSize="10" guides="1" tooltips="1" connect="1" arrows="1" fold="1" page="1" pageScale="1" pageWidth="850" pageHeight="1100" math="0" shadow="0">
      <root>
        <mxCell id="0" />
        <mxCell id="1" parent="0" />
        <mxCell id="lVhL9rG0v2zjVYbQNKtB-1" value="" style="ellipse;html=1;shape=startState;fillColor=#000000;strokeColor=#ff0000;strokeWidth=1;fontStyle=1;fontSize=13;" vertex="1" parent="1">
          <mxGeometry x="410" y="44" width="30" height="30" as="geometry" />
        </mxCell>
        <mxCell id="lVhL9rG0v2zjVYbQNKtB-2" value="" style="edgeStyle=orthogonalEdgeStyle;html=1;verticalAlign=bottom;endArrow=open;endSize=8;strokeColor=#ff0000;rounded=0;strokeWidth=1;fontStyle=1;fontSize=13;" edge="1" source="lVhL9rG0v2zjVYbQNKtB-1" parent="1">
          <mxGeometry relative="1" as="geometry">
            <mxPoint x="425" y="134" as="targetPoint" />
          </mxGeometry>
        </mxCell>
        <mxCell id="lVhL9rG0v2zjVYbQNKtB-4" value="Initialise System" style="rounded=1;whiteSpace=wrap;html=1;fontStyle=1;fontSize=13;" vertex="1" parent="1">
          <mxGeometry x="365" y="133" width="125" height="35" as="geometry" />
        </mxCell>
        <mxCell id="lVhL9rG0v2zjVYbQNKtB-5" value="" style="endArrow=classic;html=1;rounded=0;exitX=0.5;exitY=1;exitDx=0;exitDy=0;fontStyle=1;fontSize=13;" edge="1" parent="1" source="lVhL9rG0v2zjVYbQNKtB-4">
          <mxGeometry width="50" height="50" relative="1" as="geometry">
            <mxPoint x="428" y="183" as="sourcePoint" />
            <mxPoint x="428" y="210" as="targetPoint" />
          </mxGeometry>
        </mxCell>
        <mxCell id="lVhL9rG0v2zjVYbQNKtB-6" value="Video Capture" style="rounded=1;whiteSpace=wrap;html=1;fontStyle=1;fontSize=13;" vertex="1" parent="1">
          <mxGeometry x="363" y="210" width="125" height="35" as="geometry" />
        </mxCell>
        <mxCell id="lVhL9rG0v2zjVYbQNKtB-7" value="Extract Frames" style="rounded=1;whiteSpace=wrap;html=1;fontStyle=1;fontSize=13;" vertex="1" parent="1">
          <mxGeometry x="363" y="288" width="125" height="35" as="geometry" />
        </mxCell>
        <mxCell id="lVhL9rG0v2zjVYbQNKtB-8" value="" style="endArrow=classic;html=1;rounded=0;exitX=0.5;exitY=1;exitDx=0;exitDy=0;fontStyle=1;fontSize=13;" edge="1" parent="1">
          <mxGeometry width="50" height="50" relative="1" as="geometry">
            <mxPoint x="427" y="245" as="sourcePoint" />
            <mxPoint x="427" y="287" as="targetPoint" />
          </mxGeometry>
        </mxCell>
        <mxCell id="lVhL9rG0v2zjVYbQNKtB-9" value="Extract Features" style="rounded=1;whiteSpace=wrap;html=1;fontStyle=1;fontSize=13;" vertex="1" parent="1">
          <mxGeometry x="363" y="365" width="125" height="35" as="geometry" />
        </mxCell>
        <mxCell id="lVhL9rG0v2zjVYbQNKtB-10" value="Track Features" style="rounded=1;whiteSpace=wrap;html=1;fontStyle=1;fontSize=13;" vertex="1" parent="1">
          <mxGeometry x="363" y="443" width="125" height="35" as="geometry" />
        </mxCell>
        <mxCell id="lVhL9rG0v2zjVYbQNKtB-11" value="Access Sign Language" style="rounded=1;whiteSpace=wrap;html=1;fontStyle=1;fontSize=13;" vertex="1" parent="1">
          <mxGeometry x="363" y="518" width="125" height="35" as="geometry" />
        </mxCell>
        <mxCell id="lVhL9rG0v2zjVYbQNKtB-12" value="" style="endArrow=classic;html=1;rounded=0;exitX=0.5;exitY=1;exitDx=0;exitDy=0;fontStyle=1;fontSize=13;" edge="1" parent="1">
          <mxGeometry width="50" height="50" relative="1" as="geometry">
            <mxPoint x="427" y="323" as="sourcePoint" />
            <mxPoint x="427" y="365" as="targetPoint" />
          </mxGeometry>
        </mxCell>
        <mxCell id="lVhL9rG0v2zjVYbQNKtB-13" value="" style="endArrow=classic;html=1;rounded=0;exitX=0.5;exitY=1;exitDx=0;exitDy=0;fontStyle=1;fontSize=13;" edge="1" parent="1">
          <mxGeometry width="50" height="50" relative="1" as="geometry">
            <mxPoint x="427" y="400" as="sourcePoint" />
            <mxPoint x="427" y="442" as="targetPoint" />
          </mxGeometry>
        </mxCell>
        <mxCell id="lVhL9rG0v2zjVYbQNKtB-14" value="" style="endArrow=classic;html=1;rounded=0;exitX=0.5;exitY=1;exitDx=0;exitDy=0;fontStyle=1;fontSize=13;" edge="1" parent="1">
          <mxGeometry width="50" height="50" relative="1" as="geometry">
            <mxPoint x="427" y="478" as="sourcePoint" />
            <mxPoint x="427" y="520" as="targetPoint" />
          </mxGeometry>
        </mxCell>
        <mxCell id="lVhL9rG0v2zjVYbQNKtB-15" value="" style="endArrow=classic;html=1;rounded=0;exitX=0.5;exitY=1;exitDx=0;exitDy=0;fontStyle=1;fontSize=13;" edge="1" parent="1">
          <mxGeometry width="50" height="50" relative="1" as="geometry">
            <mxPoint x="427" y="553" as="sourcePoint" />
            <mxPoint x="427" y="595" as="targetPoint" />
          </mxGeometry>
        </mxCell>
        <mxCell id="lVhL9rG0v2zjVYbQNKtB-16" value="Check" style="rhombus;whiteSpace=wrap;html=1;fontStyle=1;fontSize=13;" vertex="1" parent="1">
          <mxGeometry x="387.5" y="593" width="80" height="70" as="geometry" />
        </mxCell>
        <mxCell id="lVhL9rG0v2zjVYbQNKtB-18" value="Output Sign Language" style="rounded=1;whiteSpace=wrap;html=1;fontStyle=1;fontSize=13;" vertex="1" parent="1">
          <mxGeometry x="363" y="702" width="125" height="35" as="geometry" />
        </mxCell>
        <mxCell id="lVhL9rG0v2zjVYbQNKtB-20" value="" style="ellipse;html=1;shape=endState;fillColor=#000000;strokeColor=#ff0000;fontStyle=1;fontSize=13;" vertex="1" parent="1">
          <mxGeometry x="412.5" y="776" width="30" height="30" as="geometry" />
        </mxCell>
        <mxCell id="lVhL9rG0v2zjVYbQNKtB-21" value="" style="edgeStyle=segmentEdgeStyle;endArrow=classic;html=1;curved=0;rounded=0;endSize=8;startSize=8;exitX=1;exitY=0.5;exitDx=0;exitDy=0;" edge="1" parent="1" source="lVhL9rG0v2zjVYbQNKtB-16">
          <mxGeometry width="50" height="50" relative="1" as="geometry">
            <mxPoint x="523" y="627" as="sourcePoint" />
            <mxPoint x="489" y="226" as="targetPoint" />
            <Array as="points">
              <mxPoint x="635" y="628" />
              <mxPoint x="635" y="226" />
            </Array>
          </mxGeometry>
        </mxCell>
        <mxCell id="lVhL9rG0v2zjVYbQNKtB-22" value="&lt;b style=&quot;font-size: 13px;&quot;&gt;Valid&lt;/b&gt;" style="text;html=1;align=center;verticalAlign=middle;resizable=0;points=[];autosize=1;strokeColor=none;fillColor=none;fontSize=13;" vertex="1" parent="1">
          <mxGeometry x="425" y="668" width="48" height="28" as="geometry" />
        </mxCell>
        <mxCell id="lVhL9rG0v2zjVYbQNKtB-23" value="&lt;b&gt;&lt;font style=&quot;font-size: 13px;&quot;&gt;Invalid&lt;/font&gt;&lt;/b&gt;" style="text;html=1;align=center;verticalAlign=middle;resizable=0;points=[];autosize=1;strokeColor=none;fillColor=none;" vertex="1" parent="1">
          <mxGeometry x="510" y="605" width="59" height="28" as="geometry" />
        </mxCell>
        <mxCell id="lVhL9rG0v2zjVYbQNKtB-24" value="" style="endArrow=classic;html=1;rounded=0;exitX=0.5;exitY=1;exitDx=0;exitDy=0;fontStyle=1;fontSize=13;" edge="1" parent="1">
          <mxGeometry width="50" height="50" relative="1" as="geometry">
            <mxPoint x="426.97" y="663" as="sourcePoint" />
            <mxPoint x="426.97" y="705" as="targetPoint" />
          </mxGeometry>
        </mxCell>
        <mxCell id="lVhL9rG0v2zjVYbQNKtB-25" value="" style="endArrow=classic;html=1;rounded=0;exitX=0.5;exitY=1;exitDx=0;exitDy=0;fontStyle=1;fontSize=13;" edge="1" parent="1">
          <mxGeometry width="50" height="50" relative="1" as="geometry">
            <mxPoint x="426.97" y="737" as="sourcePoint" />
            <mxPoint x="426.97" y="779" as="targetPoint" />
          </mxGeometry>
        </mxCell>
        <mxCell id="lVhL9rG0v2zjVYbQNKtB-26" value="&lt;font size=&quot;1&quot; style=&quot;&quot;&gt;&lt;u style=&quot;font-size: 17px;&quot;&gt;Activity Diagram Of Sign Language To Text &amp;amp; Voice Conversion&lt;/u&gt;&lt;/font&gt;" style="text;html=1;align=center;verticalAlign=middle;resizable=0;points=[];autosize=1;strokeColor=none;fillColor=none;strokeWidth=2;fontStyle=1" vertex="1" parent="1">
          <mxGeometry x="161" y="845" width="529" height="32" as="geometry" />
        </mxCell>
      </root>
    </mxGraphModel>
  </diagram>
</mxfile>
